<svg width="493" height="489" viewBox="0 0 493 489" fill="none" xmlns="http://www.w3.org/2000/svg">
<path d="M130.868 185.819C120.675 172.974 113.756 157.807 110.716 141.648C107.677 125.488 108.61 108.831 113.433 93.1338C129.578 37.398 186.969 23.2279 229.5 21.151C272.03 19.074 365.668 25.0525 450.062 0.243938L427.234 42.6709L285.672 104.431L170.529 115.346L137.1 142.62L128.367 166.251L130.868 185.819Z" fill="#303030"/>
<path d="M131.729 185.739C131.729 185.739 134.609 133.263 206.566 133.098C278.524 132.933 443.813 133.97 450.041 0.000866849C450.041 0.000866849 409.439 79.6744 247.208 72.8658C247.208 72.8658 86.7762 66.0173 131.729 185.739Z" fill="#303030"/>
<path d="M402.183 176.686C449.522 172.199 463.58 237.663 453.879 284.717L445.657 325.653C437.664 364.14 417.161 398.809 387.402 424.161C357.642 449.512 320.33 464.093 281.383 465.592C245.436 468.354 209.273 465.063 174.375 455.852C95.4075 429.549 18.4584 363.418 19.6773 232.307C20.8116 130.184 77.0798 77.2867 101.748 59.0938C102.287 58.474 103.048 58.0959 103.864 58.0429C104.679 57.99 105.483 58.2666 106.098 58.8115C106.713 59.3563 107.089 60.1249 107.143 60.9484C107.197 61.7719 106.925 62.5829 106.386 63.2027C90.3327 92.145 54.127 169.262 91.685 239.517C91.685 239.517 138.801 378.002 281.31 338.502C291.107 335.896 300.132 330.939 307.616 324.052C315.1 317.166 320.822 308.554 324.295 298.95C324.477 298.405 324.522 297.823 324.427 297.256C324.333 296.688 324.1 296.153 323.752 295.697C323.403 295.242 322.948 294.88 322.427 294.644C321.907 294.408 321.337 294.306 320.769 294.346L314.772 294.914C307.658 295.606 300.476 294.874 293.638 292.761C286.8 290.647 280.44 287.194 274.922 282.599C269.403 278.004 264.836 272.357 261.48 265.981C258.124 259.605 256.047 252.626 255.366 245.444C253.99 230.926 258.383 216.462 267.58 205.232C276.777 194.002 290.024 186.928 304.406 185.564L402.183 176.686Z" fill="#303030"/>
<path d="M319.579 295.598C319.579 295.598 463.454 286.864 403.812 408.011C403.812 408.011 468.239 345.512 455.183 232.288C455.183 232.288 452.195 174.889 407.419 176.424L298.547 186.744C298.547 186.744 249.693 192.923 254.3 241.523C258.922 284.83 286.7 298.715 319.579 295.598Z" fill="#303030"/>
</svg>
