<svg width="26" height="26" viewBox="0 0 26 26" fill="none" xmlns="http://www.w3.org/2000/svg">
<path d="M26 20.7979C26 21.4807 25.8655 22.1569 25.6042 22.7877C25.3428 23.4186 24.9598 23.9917 24.4769 24.4745C23.994 24.9573 23.4208 25.3402 22.7899 25.6014C22.159 25.8626 21.4828 25.997 20.8 25.9969H5.20312C4.52003 25.9974 3.84353 25.8634 3.21228 25.6023C2.58104 25.3413 2.00742 24.9584 1.52421 24.4756C1.041 23.9928 0.657677 23.4195 0.396145 22.7884C0.134613 22.1574 -2.17977e-07 21.481 0 20.7979V5.2C-2.74906e-08 3.82105 0.547713 2.49857 1.52268 1.52341C2.49764 0.548253 3.82002 0.000275452 5.19896 1.03719e-07H20.8C21.4829 -0.000136301 22.1592 0.134272 22.7901 0.395548C23.4211 0.656824 23.9944 1.03985 24.4773 1.52274C24.9602 2.00563 25.3432 2.57893 25.6045 3.20989C25.8657 3.84084 26.0001 4.51709 26 5.2V20.7979Z" fill="#2EB34A"/>
<path d="M20.6162 1.9884H5.3879C4.92516 1.98908 4.4671 2.08097 4.0399 2.25881C3.6127 2.43664 3.22475 2.69694 2.89822 3.02482C2.57169 3.3527 2.31299 3.74173 2.13692 4.16965C1.96085 4.59758 1.87085 5.05602 1.87208 5.51875V13.8888C1.87099 14.3515 1.96108 14.8099 2.1372 15.2377C2.31332 15.6656 2.57202 16.0546 2.89852 16.3824C3.22502 16.7103 3.61292 16.9706 4.04006 17.1485C4.4672 17.3264 4.9252 17.4183 5.3879 17.4192H10.6336L12.4237 20.3338C12.4408 20.363 12.4602 20.3908 12.4818 20.4168C12.5346 20.5078 12.6103 20.5833 12.7014 20.6358C12.7925 20.6883 12.8958 20.7159 13.001 20.7159C13.1061 20.7159 13.2095 20.6883 13.3006 20.6358C13.3917 20.5833 13.4674 20.5078 13.5202 20.4168C13.5436 20.3906 13.5638 20.3616 13.5804 20.3307L15.3674 17.415H20.6131C21.0758 17.4142 21.5338 17.3222 21.9609 17.1443C22.388 16.9664 22.7759 16.7061 23.1024 16.3783C23.4289 16.0504 23.6876 15.6615 23.8638 15.2336C24.0399 14.8057 24.13 14.3473 24.1289 13.8847V5.51668C24.1305 4.58311 23.7615 3.68708 23.1028 3.02549C22.4441 2.3639 21.5497 1.99088 20.6162 1.9884V1.9884Z" fill="white"/>
<path d="M6.81607 8.125C6.37743 8.15728 5.96554 8.3481 5.65728 8.66182V6.49689H4.29395V12.1745H5.67182V11.7301C5.67182 11.7301 5.99682 12.3157 6.81399 12.3157C6.81399 12.3157 8.73492 12.2451 8.73492 10.1975C8.737 10.2017 8.66639 8.125 6.81607 8.125ZM6.51599 11.1216C6.34257 11.1219 6.173 11.0706 6.02872 10.9744C5.88444 10.8782 5.77196 10.7413 5.7055 10.5811C5.63904 10.421 5.6216 10.2447 5.65538 10.0746C5.68916 9.90448 5.77265 9.74823 5.89527 9.62561C6.0179 9.50299 6.17414 9.4195 6.34424 9.38572C6.51433 9.35194 6.69062 9.36938 6.8508 9.43584C7.01097 9.5023 7.14783 9.61478 7.24405 9.75906C7.34026 9.90333 7.39151 10.0729 7.39131 10.2463C7.38994 10.4777 7.29715 10.6991 7.13317 10.8623C6.96919 11.0255 6.74734 11.1172 6.51599 11.1175V11.1216Z" fill="#F47627"/>
<path d="M9.17383 6.36914V7.68368C9.17383 7.68368 9.79683 7.6546 9.79683 8.81339V12.1745H11.1103V8.50293C11.1103 8.50293 11.1654 6.36914 9.17383 6.36914Z" fill="#F47627"/>
<path d="M14.3217 8.13849C14.3217 8.13849 12.0696 8.13849 12.0696 10.2422C12.0696 10.2422 11.9969 12.3188 14.3217 12.3188C14.3217 12.3188 16.6248 12.3188 16.6248 10.2422C16.6248 10.2422 16.7006 8.13849 14.3217 8.13849ZM14.3217 11.1175C14.1483 11.1177 13.9788 11.0664 13.8345 10.9702C13.6902 10.874 13.5777 10.7371 13.5113 10.577C13.4448 10.4168 13.4274 10.2405 13.4611 10.0704C13.4949 9.90032 13.5784 9.74407 13.701 9.62145C13.8237 9.49882 13.9799 9.41534 14.15 9.38155C14.3201 9.34777 14.4964 9.36522 14.6566 9.43167C14.8167 9.49813 14.9536 9.61062 15.0498 9.75489C15.146 9.89917 15.1973 10.0687 15.1971 10.2422C15.1968 10.4742 15.1045 10.6967 14.9404 10.8608C14.7763 11.0249 14.5538 11.1172 14.3217 11.1175V11.1175Z" fill="#F47627"/>
<path d="M20.3848 8.27661V8.65768C20.2436 8.49341 20.0682 8.36187 19.871 8.27221C19.6737 8.18256 19.4593 8.13693 19.2427 8.13851C19.2427 8.13851 17.3145 8.05752 17.3145 10.2277C17.3145 10.2277 17.2937 12.2493 19.1897 12.2493C19.1897 12.2493 19.9633 12.2804 20.3869 11.7301V12.0479C20.3869 12.0479 20.4824 13.0436 19.5178 13.0436H19.1876V14.2512H19.7172C19.7172 14.2512 21.7087 14.272 21.7087 12.1216V8.27973L20.3848 8.27661ZM19.5697 11.1175C19.3963 11.1177 19.2267 11.0665 19.0825 10.9702C18.9382 10.874 18.8257 10.7372 18.7592 10.577C18.6928 10.4168 18.6753 10.2405 18.7091 10.0704C18.7429 9.90034 18.8264 9.74409 18.949 9.62147C19.0716 9.49885 19.2279 9.41536 19.398 9.38158C19.5681 9.3478 19.7444 9.36524 19.9045 9.4317C20.0647 9.49816 20.2016 9.61064 20.2978 9.75492C20.394 9.89919 20.4453 10.0688 20.4451 10.2422C20.4451 10.4743 20.3528 10.697 20.1887 10.8611C20.0245 11.0253 19.8019 11.1175 19.5697 11.1175V11.1175Z" fill="#F47627"/>
</svg>
